<svg width="48" height="48" viewBox="0 0 48 48" xmlns="http://www.w3.org/2000/svg">
  <rect width="48" height="48" rx="12" fill="#0A0A0A"/>
  <g transform="translate(24, 24)">
    <!-- 16 rays: long alternating with short for the starburst effect -->
    <line x1="0" y1="-16" x2="0" y2="-7"  stroke="#FFFFFF" stroke-width="2" stroke-linecap="round" transform="rotate(0)"/>
    <line x1="0" y1="-13" x2="0" y2="-7"  stroke="#FFFFFF" stroke-width="1.4" stroke-linecap="round" transform="rotate(22.5)"/>
    <line x1="0" y1="-16" x2="0" y2="-7"  stroke="#FFFFFF" stroke-width="2" stroke-linecap="round" transform="rotate(45)"/>
    <line x1="0" y1="-13" x2="0" y2="-7"  stroke="#FFFFFF" stroke-width="1.4" stroke-linecap="round" transform="rotate(67.5)"/>
    <line x1="0" y1="-16" x2="0" y2="-7"  stroke="#FFFFFF" stroke-width="2" stroke-linecap="round" transform="rotate(90)"/>
    <line x1="0" y1="-13" x2="0" y2="-7"  stroke="#FFFFFF" stroke-width="1.4" stroke-linecap="round" transform="rotate(112.5)"/>
    <line x1="0" y1="-16" x2="0" y2="-7"  stroke="#FFFFFF" stroke-width="2" stroke-linecap="round" transform="rotate(135)"/>
    <line x1="0" y1="-13" x2="0" y2="-7"  stroke="#FFFFFF" stroke-width="1.4" stroke-linecap="round" transform="rotate(157.5)"/>
    <line x1="0" y1="-16" x2="0" y2="-7"  stroke="#FFFFFF" stroke-width="2" stroke-linecap="round" transform="rotate(180)"/>
    <line x1="0" y1="-13" x2="0" y2="-7"  stroke="#FFFFFF" stroke-width="1.4" stroke-linecap="round" transform="rotate(202.5)"/>
    <line x1="0" y1="-16" x2="0" y2="-7"  stroke="#FFFFFF" stroke-width="2" stroke-linecap="round" transform="rotate(225)"/>
    <line x1="0" y1="-13" x2="0" y2="-7"  stroke="#FFFFFF" stroke-width="1.4" stroke-linecap="round" transform="rotate(247.5)"/>
    <line x1="0" y1="-16" x2="0" y2="-7"  stroke="#FFFFFF" stroke-width="2" stroke-linecap="round" transform="rotate(270)"/>
    <line x1="0" y1="-13" x2="0" y2="-7"  stroke="#FFFFFF" stroke-width="1.4" stroke-linecap="round" transform="rotate(292.5)"/>
    <line x1="0" y1="-16" x2="0" y2="-7"  stroke="#FFFFFF" stroke-width="2" stroke-linecap="round" transform="rotate(315)"/>
    <line x1="0" y1="-13" x2="0" y2="-7"  stroke="#FFFFFF" stroke-width="1.4" stroke-linecap="round" transform="rotate(337.5)"/>
    <!-- Centre dot -->
    <circle cx="0" cy="0" r="3" fill="#FFFFFF"/>
  </g>
</svg>
